<svg width="16" height="16" viewBox="0 0 16 16" fill="none" xmlns="http://www.w3.org/2000/svg">
  <path d="M8.9021 1.44578C11.0226 1.44578 11.3117 1.44578 12.1792 1.44578C12.9503 1.44578 13.3358 1.63855 13.625 1.73494C14.0105 1.92771 14.2997 2.0241 14.5888 2.31325C14.878 2.60241 15.0708 2.89157 15.1672 3.27711C15.2635 3.56627 15.3599 3.95181 15.4563 4.72289C15.4563 5.59036 15.4563 5.78313 15.4563 8C15.4563 10.2169 15.4563 10.4096 15.4563 11.2771C15.4563 12.0482 15.2635 12.4337 15.1672 12.7229C14.9744 13.1084 14.878 13.3976 14.5888 13.6867C14.2997 13.9759 14.0105 14.1687 13.625 14.2651C13.3358 14.3614 12.9503 14.4578 12.1792 14.5542C11.3117 14.5542 11.119 14.5542 8.9021 14.5542C6.68523 14.5542 6.49246 14.5542 5.62499 14.5542C4.85391 14.5542 4.46837 14.3614 4.17921 14.2651C3.79367 14.0723 3.50451 13.9759 3.21535 13.6867C2.9262 13.3976 2.73343 13.1084 2.63704 12.7229C2.54065 12.4337 2.44427 12.0482 2.34788 11.2771C2.34788 10.4096 2.34788 10.2169 2.34788 8C2.34788 5.78313 2.34788 5.59036 2.34788 4.72289C2.34788 3.95181 2.54065 3.56627 2.63704 3.27711C2.82981 2.89157 2.9262 2.60241 3.21535 2.31325C3.50451 2.0241 3.79367 1.83133 4.17921 1.73494C4.46837 1.63855 4.85391 1.54217 5.62499 1.44578C6.49246 1.44578 6.78162 1.44578 8.9021 1.44578ZM8.9021 0C6.68523 0 6.49246 0 5.62499 0C4.75752 0 4.17921 0.192772 3.69728 0.385543C3.21535 0.578314 2.73343 0.867471 2.2515 1.3494C1.76957 1.83133 1.5768 2.21687 1.28764 2.79518C1.09487 3.27711 0.998485 3.85542 0.9021 4.72289C0.9021 5.59036 0.9021 5.87952 0.9021 8C0.9021 10.2169 0.9021 10.4096 0.9021 11.2771C0.9021 12.1446 1.09487 12.7229 1.28764 13.2048C1.48041 13.6867 1.76957 14.1687 2.2515 14.6506C2.73343 15.1325 3.11897 15.3253 3.69728 15.6145C4.17921 15.8072 4.75752 15.9036 5.62499 16C6.49246 16 6.78162 16 8.9021 16C11.0226 16 11.3117 16 12.1792 16C13.0467 16 13.625 15.8072 14.1069 15.6145C14.5888 15.4217 15.0708 15.1325 15.5527 14.6506C16.0346 14.1687 16.2274 13.7831 16.5166 13.2048C16.7093 12.7229 16.8057 12.1446 16.9021 11.2771C16.9021 10.4096 16.9021 10.1205 16.9021 8C16.9021 5.87952 16.9021 5.59036 16.9021 4.72289C16.9021 3.85542 16.7093 3.27711 16.5166 2.79518C16.3238 2.31325 16.0346 1.83133 15.5527 1.3494C15.0708 0.867471 14.6852 0.674699 14.1069 0.385543C13.625 0.192772 13.0467 0.0963856 12.1792 0C11.3117 0 11.119 0 8.9021 0Z" fill="#17183B"/>
  <path d="M8.9021 3.85542C6.58885 3.85542 4.75752 5.68675 4.75752 8C4.75752 10.3133 6.58885 12.1446 8.9021 12.1446C11.2154 12.1446 13.0467 10.3133 13.0467 8C13.0467 5.68675 11.2154 3.85542 8.9021 3.85542ZM8.9021 10.6988C7.45632 10.6988 6.2033 9.54217 6.2033 8C6.2033 6.55422 7.35993 5.30121 8.9021 5.30121C10.3479 5.30121 11.6009 6.45783 11.6009 8C11.6009 9.44578 10.3479 10.6988 8.9021 10.6988Z" fill="#17183B"/>
  <path d="M13.1431 4.72289C13.6754 4.72289 14.1069 4.29136 14.1069 3.75904C14.1069 3.22671 13.6754 2.79518 13.1431 2.79518C12.6107 2.79518 12.1792 3.22671 12.1792 3.75904C12.1792 4.29136 12.6107 4.72289 13.1431 4.72289Z" fill="#17183B"/>
</svg>