<svg width="16" height="16" viewBox="0 0 16 16" fill="none" xmlns="http://www.w3.org/2000/svg">
  <path
    d="M8.04929 0C3.62218 0 0 3.69231 0 8.20513C0 11.5897 2.01233 14.4615 4.82958 15.6923C4.82958 15.0769 4.82957 14.4615 4.93018 13.8462C5.13141 13.1282 5.93634 9.33333 5.93634 9.33333C5.93634 9.33333 5.63451 8.82051 5.63451 8C5.63451 6.76923 6.33882 5.84615 7.14375 5.84615C7.84806 5.84615 8.25052 6.35897 8.25052 7.07692C8.25052 7.79487 7.74744 8.92308 7.54621 9.94872C7.34498 10.7692 7.94867 11.4872 8.85422 11.4872C10.3635 11.4872 11.3696 9.53846 11.3696 7.07692C11.3696 5.23077 10.1622 3.89744 8.04929 3.89744C5.6345 3.89744 4.12527 5.74359 4.12527 7.79487C4.12527 8.51282 4.3265 9.02564 4.62835 9.4359C4.72896 9.64103 4.82957 9.64103 4.72895 9.84615C4.72895 9.94872 4.62834 10.359 4.52772 10.4615C4.42711 10.6667 4.3265 10.7692 4.12527 10.6667C3.01849 10.1538 2.5154 8.92308 2.5154 7.48718C2.5154 5.1282 4.42711 2.35897 8.25052 2.35897C11.3696 2.35897 13.3819 4.61538 13.3819 7.07692C13.3819 10.2564 11.6715 12.7179 9.05545 12.7179C8.1499 12.7179 7.34498 12.2051 7.04313 11.6923C7.04313 11.6923 6.54004 13.5385 6.43942 13.9487C6.23819 14.5641 5.93636 15.1795 5.63451 15.6923C6.33882 15.8974 7.14374 16 7.94867 16C12.3758 16 15.998 12.3077 15.998 7.79487C16.0986 3.69231 12.4764 0 8.04929 0Z"
    fill="#17183B" />
</svg>